<svg width="88" height="89" viewBox="0 0 88 89" fill="none" xmlns="http://www.w3.org/2000/svg">
<path d="M0.25 0.916626V75.9166H31.5L44 88.4166L56.5 75.9166H87.75V0.916626H0.25ZM47.125 47.7916H44V44.6666H47.125V47.7916ZM47.125 38.2604V41.5416H44V35.2916H45.5625C48.1469 35.2916 50.25 33.1885 50.25 30.6041C50.25 28.0198 48.1469 25.9166 45.5625 25.9166C42.9781 25.9166 40.875 28.0198 40.875 30.6041V32.1666H37.75V30.6041C37.75 26.2979 41.2531 22.7916 45.5625 22.7916C49.8719 22.7916 53.375 26.2979 53.375 30.6041C53.375 34.3791 50.6875 37.5323 47.125 38.2604Z" fill="#83362F"/>
</svg>
